HIERARCHY
ROOT Hips
{
	OFFSET 0.000000 97.167313 0.000000
	CHANNELS 6 Xposition Yposition Zposition Xrotation Yrotation Zrotation
	JOINT Spine
	{
		OFFSET 0.000000 13.784798 0.064400
		CHANNELS 3 Xrotation Yrotation Zrotation
		JOINT Spine1
		{
			OFFSET 0.000000 12.037903 0.404700
			CHANNELS 3 Xrotation Yrotation Zrotation
			JOINT Spine2
			{
				OFFSET 0.000000 17.795601 0.420200
				CHANNELS 3 Xrotation Yrotation Zrotation
				JOINT Neck
				{
					OFFSET 0.000000 39.131302 11.954600
					CHANNELS 3 Xrotation Yrotation Zrotation
					JOINT Head
					{
						OFFSET 0.000000 14.456192 15.627699
						CHANNELS 3 Xrotation Yrotation Zrotation
						JOINT HeadTop_End
						{
							OFFSET 0.000000 15.703506 7.603401
							CHANNELS 3 Xrotation Yrotation Zrotation
							End Site
							{
								OFFSET 0.000000 17.447403 0.000000
							}
						}
					}
				}
				JOINT LeftShoulder
				{
					OFFSET 17.399500 24.608795 1.168800
					CHANNELS 3 Xrotation Yrotation Zrotation
					JOINT LeftArm
					{
						OFFSET 18.980635 5.765305 1.818600
						CHANNELS 3 Xrotation Yrotation Zrotation
						JOINT LeftForeArm
						{
							OFFSET 49.290169 0.000000 0.000000
							CHANNELS 3 Xrotation Yrotation Zrotation
							JOINT LeftHand
							{
								OFFSET 31.562012 0.000000 0.000000
								CHANNELS 3 Xrotation Yrotation Zrotation
								JOINT LeftHandThumb1
								{
									OFFSET 6.133995 -4.388519 7.076070
									CHANNELS 3 Xrotation Yrotation Zrotation
									JOINT LeftHandThumb2
									{
										OFFSET 6.037666 -3.485840 3.485847
										CHANNELS 3 Xrotation Yrotation Zrotation
										JOINT LeftHandThumb3
										{
											OFFSET 6.496506 -3.750763 3.750761
											CHANNELS 3 Xrotation Yrotation Zrotation
											JOINT LeftHandThumb4
											{
												OFFSET 5.616882 -3.242905 3.242910
												CHANNELS 3 Xrotation Yrotation Zrotation
												End Site
												{
													OFFSET -1.254608 7.132141 0.375429
												}
											}
										}
									}
								}
								JOINT LeftHandPinky1
								{
									OFFSET 18.920792 -0.453171 -11.426712
									CHANNELS 3 Xrotation Yrotation Zrotation
									JOINT LeftHandPinky2
									{
										OFFSET 4.919586 0.000000 0.000000
										CHANNELS 3 Xrotation Yrotation Zrotation
										JOINT LeftHandPinky3
										{
											OFFSET 5.233047 0.000000 0.000000
											CHANNELS 3 Xrotation Yrotation Zrotation
											JOINT LeftHandPinky4
											{
												OFFSET 5.571716 0.000000 0.000000
												CHANNELS 3 Xrotation Yrotation Zrotation
												End Site
												{
													OFFSET -3.459808 4.342407 -0.466164
												}
											}
										}
									}
								}
								JOINT LeftHandRing1
								{
									OFFSET 22.726120 -0.094986 -6.500475
									CHANNELS 3 Xrotation Yrotation Zrotation
									JOINT LeftHandRing2
									{
										OFFSET 6.408615 0.000000 0.000000
										CHANNELS 3 Xrotation Yrotation Zrotation
										JOINT LeftHandRing3
										{
											OFFSET 6.150223 0.000000 0.000000
											CHANNELS 3 Xrotation Yrotation Zrotation
											JOINT LeftHandRing4
											{
												OFFSET 6.145386 0.000000 0.000000
												CHANNELS 3 Xrotation Yrotation Zrotation
												End Site
												{
													OFFSET -3.671402 4.923981 -0.202372
												}
											}
										}
									}
								}
								JOINT LeftHandMiddle1
								{
									OFFSET 23.373947 0.000000 0.000001
									CHANNELS 3 Xrotation Yrotation Zrotation
									JOINT LeftHandMiddle2
									{
										OFFSET 6.996567 0.000000 0.000000
										CHANNELS 3 Xrotation Yrotation Zrotation
										JOINT LeftHandMiddle3
										{
											OFFSET 7.015945 0.000000 0.000000
											CHANNELS 3 Xrotation Yrotation Zrotation
											JOINT LeftHandMiddle4
											{
												OFFSET 7.721573 0.000000 0.000000
												CHANNELS 3 Xrotation Yrotation Zrotation
												End Site
												{
													OFFSET -4.651108 6.158463 0.251582
												}
											}
										}
									}
								}
								JOINT LeftHandIndex1
								{
									OFFSET 21.310577 -0.490082 6.209344
									CHANNELS 3 Xrotation Yrotation Zrotation
									JOINT LeftHandIndex2
									{
										OFFSET 7.536453 0.000000 0.000000
										CHANNELS 3 Xrotation Yrotation Zrotation
										JOINT LeftHandIndex3
										{
											OFFSET 7.512344 0.000000 0.000000
											CHANNELS 3 Xrotation Yrotation Zrotation
											JOINT LeftHandIndex4
											{
												OFFSET 10.212402 0.000000 0.000001
												CHANNELS 3 Xrotation Yrotation Zrotation
												End Site
												{
													OFFSET -5.180801 8.690506 1.388433
												}
											}
										}
									}
								}
							}
						}
					}
				}
				JOINT RightShoulder
				{
					OFFSET -17.399500 24.608795 1.168800
					CHANNELS 3 Xrotation Yrotation Zrotation
					JOINT RightArm
					{
						OFFSET -18.980635 5.765305 1.818600
						CHANNELS 3 Xrotation Yrotation Zrotation
						JOINT RightForeArm
						{
							OFFSET -49.290169 0.000000 0.000000
							CHANNELS 3 Xrotation Yrotation Zrotation
							JOINT RightHand
							{
								OFFSET -31.562012 0.000000 0.000000
								CHANNELS 3 Xrotation Yrotation Zrotation
								JOINT RightHandThumb1
								{
									OFFSET -6.133995 -4.388519 7.076070
									CHANNELS 3 Xrotation Yrotation Zrotation
									JOINT RightHandThumb2
									{
										OFFSET -6.037666 -3.485840 3.485847
										CHANNELS 3 Xrotation Yrotation Zrotation
										JOINT RightHandThumb3
										{
											OFFSET -6.496506 -3.750763 3.750761
											CHANNELS 3 Xrotation Yrotation Zrotation
											JOINT RightHandThumb4
											{
												OFFSET -5.616882 -3.242905 3.242910
												CHANNELS 3 Xrotation Yrotation Zrotation
												End Site
												{
													OFFSET 1.254608 7.132141 0.375429
												}
											}
										}
									}
								}
								JOINT RightHandIndex1
								{
									OFFSET -21.310577 -0.490082 6.209344
									CHANNELS 3 Xrotation Yrotation Zrotation
									JOINT RightHandIndex2
									{
										OFFSET -7.536453 0.000000 0.000000
										CHANNELS 3 Xrotation Yrotation Zrotation
										JOINT RightHandIndex3
										{
											OFFSET -7.512344 0.000000 0.000000
											CHANNELS 3 Xrotation Yrotation Zrotation
											JOINT RightHandIndex4
											{
												OFFSET -10.212402 0.000000 0.000001
												CHANNELS 3 Xrotation Yrotation Zrotation
												End Site
												{
													OFFSET 5.180801 8.690506 1.388433
												}
											}
										}
									}
								}
								JOINT RightHandMiddle1
								{
									OFFSET -23.373947 0.000000 0.000001
									CHANNELS 3 Xrotation Yrotation Zrotation
									JOINT RightHandMiddle2
									{
										OFFSET -6.996567 0.000000 0.000000
										CHANNELS 3 Xrotation Yrotation Zrotation
										JOINT RightHandMiddle3
										{
											OFFSET -7.015945 0.000000 0.000000
											CHANNELS 3 Xrotation Yrotation Zrotation
											JOINT RightHandMiddle4
											{
												OFFSET -7.721573 0.000000 0.000000
												CHANNELS 3 Xrotation Yrotation Zrotation
												End Site
												{
													OFFSET 4.651108 6.158463 0.251582
												}
											}
										}
									}
								}
								JOINT RightHandRing1
								{
									OFFSET -22.726120 -0.094986 -6.500475
									CHANNELS 3 Xrotation Yrotation Zrotation
									JOINT RightHandRing2
									{
										OFFSET -6.408615 0.000000 0.000000
										CHANNELS 3 Xrotation Yrotation Zrotation
										JOINT RightHandRing3
										{
											OFFSET -6.150223 0.000000 0.000000
											CHANNELS 3 Xrotation Yrotation Zrotation
											JOINT RightHandRing4
											{
												OFFSET -6.145386 0.000000 0.000000
												CHANNELS 3 Xrotation Yrotation Zrotation
												End Site
												{
													OFFSET 3.671402 4.923981 -0.202372
												}
											}
										}
									}
								}
								JOINT RightHandPinky1
								{
									OFFSET -18.920792 -0.453171 -11.426712
									CHANNELS 3 Xrotation Yrotation Zrotation
									JOINT RightHandPinky2
									{
										OFFSET -4.919586 0.000000 0.000000
										CHANNELS 3 Xrotation Yrotation Zrotation
										JOINT RightHandPinky3
										{
											OFFSET -5.233047 0.000000 0.000000
											CHANNELS 3 Xrotation Yrotation Zrotation
											JOINT RightHandPinky4
											{
												OFFSET -5.571716 0.000000 0.000000
												CHANNELS 3 Xrotation Yrotation Zrotation
												End Site
												{
													OFFSET 3.459808 4.342407 -0.466164
												}
											}
										}
									}
								}
							}
						}
					}
				}
			}
		}
	}
	JOINT LeftUpLeg
	{
		OFFSET 19.899099 -7.885101 -3.429500
		CHANNELS 3 Xrotation Yrotation Zrotation
		JOINT LeftLeg
		{
			OFFSET 1.745560 -36.997807 10.304700
			CHANNELS 3 Xrotation Yrotation Zrotation
			JOINT LeftFoot
			{
				OFFSET -1.745558 -29.803308 -13.615400
				CHANNELS 3 Xrotation Yrotation Zrotation
				JOINT LeftToeBase
				{
					OFFSET 1.181900 -18.539904 15.226099
					CHANNELS 3 Xrotation Yrotation Zrotation
					JOINT LeftToe_End
					{
						OFFSET -0.863701 1.402801 16.534700
						CHANNELS 3 Xrotation Yrotation Zrotation
						End Site
						{
							OFFSET 0.000000 16.616566 0.000000
						}
					}
				}
			}
		}
	}
	JOINT RightUpLeg
	{
		OFFSET -19.899099 -7.885101 -3.429500
		CHANNELS 3 Xrotation Yrotation Zrotation
		JOINT RightLeg
		{
			OFFSET -1.745560 -36.997807 10.304700
			CHANNELS 3 Xrotation Yrotation Zrotation
			JOINT RightFoot
			{
				OFFSET 1.745558 -29.803308 -13.615400
				CHANNELS 3 Xrotation Yrotation Zrotation
				JOINT RightToeBase
				{
					OFFSET -1.181900 -18.539904 15.226099
					CHANNELS 3 Xrotation Yrotation Zrotation
					JOINT RightToe_End
					{
						OFFSET 0.863701 1.402801 16.534700
						CHANNELS 3 Xrotation Yrotation Zrotation
						End Site
						{
							OFFSET 0.000000 16.616566 0.000000
						}
					}
				}
			}
		}
	}
}
MOTION
Frames: 4
Frame Time: 0.033333
5.500572 75.625763 -0.355516 2.262948 0.136009 12.596725 11.435406 -6.218775 1.695357 0.826045 -1.684460 -0.081296 0.831195 -1.679009 -0.069353 0.264764 -5.325166 -0.350137 14.735851 -64.292270 23.589361 -0.000002 -0.000000 -0.000000 0.390030 -7.113661 -15.858716 13.818817 10.033181 -57.626620 0.000087 -76.179067 0.000085 7.374457 8.588247 3.818948 -2.832629 -1.477323 13.645921 19.240322 19.690189 -6.942256 -18.674273 -19.016143 13.024325 0.000000 0.000003 0.000003 1.991625 7.120105 -36.160394 0.708870 2.795306 -28.454404 0.345413 1.983618 -19.753395 0.000002 0.000004 -0.000002 4.144534 9.374847 -39.505893 1.451754 3.861370 -41.196819 0.221124 1.595918 -15.775920 0.000000 0.000000 -0.000000 1.505375 6.216133 -38.017789 0.846938 3.035995 -31.168697 0.373266 2.059504 -20.543215 -0.000001 -0.000002 0.000006 -0.860239 2.184297 -28.931548 0.745545 2.861858 -29.197505 0.245020 1.678192 -16.612922 -0.000003 0.000001 0.000001 0.598566 3.265800 15.797408 17.641991 3.568240 46.861539 0.000027 52.766428 -0.000034 18.897723 12.867825 1.562016 -8.879584 4.825555 -8.712521 17.703318 -27.978902 -1.443628 -5.739861 17.590326 -12.555324 -0.000002 -0.000001 -0.000001 -0.329053 -2.295698 22.502200 1.145065 -3.060403 41.019285 0.241774 -1.482497 18.523726 -0.000001 0.000002 0.000001 1.411820 -5.682533 35.397923 0.992227 -2.875535 38.068387 0.150515 -1.175684 14.591362 0.000002 0.000001 -0.000001 3.805722 -8.246654 41.741472 0.788878 -2.595326 33.809208 0.206831 -1.373853 17.121872 0.000000 -0.000000 0.000002 1.189443 -5.348041 44.678791 1.008061 -2.895599 38.382726 0.474654 -2.050189 26.068168 0.000003 0.000000 0.000004 -24.558703 9.610189 11.881764 72.689134 8.538957 -1.840830 1.291302 11.942813 -8.840552 -7.108408 1.093800 -11.366452 -0.000001 0.000001 0.000001 -22.702012 -6.217158 7.744913 66.371960 -8.931376 -4.423892 -38.575368 6.595677 -17.194648 -14.779875 0.000001 -0.000002 0.000000 0.000000 -0.000000 
-0.290569 73.983070 -10.033320 1.074754 3.400447 12.437336 11.309175 -8.510241 2.630053 0.821547 -2.236306 -0.034180 0.829441 -2.229114 -0.019278 0.148237 -4.962226 -0.669504 9.851954 -62.107764 18.871951 0.000001 -0.000000 0.000000 0.399763 -7.312322 -15.240894 12.360569 8.428579 -54.642859 -0.002203 -91.191672 -0.002108 6.364697 10.010624 4.779762 -2.832633 -1.477322 13.645911 20.084052 21.497474 -7.915695 -19.093445 -17.425218 11.189971 0.000001 0.000002 -0.000001 1.268486 5.915950 -38.519770 0.820811 2.992382 -30.671245 0.333550 1.950311 -19.408128 0.000002 0.000001 0.000001 3.985458 8.863805 -42.769292 1.661708 4.088263 -44.225031 0.209521 1.554247 -15.353555 -0.000001 -0.000002 -0.000000 1.135138 5.795911 -42.036205 0.939866 3.184329 -32.880995 0.378279 2.072836 -20.682511 0.000000 -0.000003 0.000004 -0.795890 1.878776 -35.174955 0.833494 3.013662 -30.913559 0.221900 1.598731 -15.804540 0.000000 0.000003 0.000001 0.555194 4.395399 13.825650 29.113637 -4.983803 50.238449 0.000029 59.655767 -0.000015 18.302313 8.030387 4.726693 -8.879589 4.825553 -8.712518 12.328178 -18.904188 -6.773854 -3.722608 20.333512 -14.542554 -0.000002 -0.000002 0.000002 -0.048508 -1.248438 21.496875 1.204581 -3.127404 42.121947 0.243660 -1.488141 18.596795 -0.000001 -0.000003 -0.000001 1.146242 -5.328785 34.123748 1.016952 -2.906774 38.558242 0.149093 -1.170140 14.521226 0.000001 -0.000000 -0.000001 3.892093 -8.485497 40.414421 0.894060 -2.745725 36.066367 0.207118 -1.374778 17.133642 0.000000 -0.000004 -0.000004 2.121312 -7.437661 42.510742 1.171870 -3.090914 41.519088 0.489059 -2.079369 26.467980 -0.000001 -0.000002 0.000002 -12.842734 13.005627 10.278335 76.520870 7.910153 -3.182287 -2.425834 9.201732 -10.394494 -7.400714 0.827948 -9.755762 0.000003 -0.000003 0.000003 -31.178208 -10.199024 12.519600 64.775970 -14.053629 -2.695170 -30.507747 8.145249 -22.899357 -13.056431 -0.000009 0.000002 0.000001 0.000000 -0.000001 
-7.182573 74.006149 -18.568790 -0.646144 8.444602 12.935192 10.533697 -10.521880 2.583670 0.602542 -2.642651 -0.058643 0.613417 -2.634178 -0.047094 0.275292 -4.783734 -1.140792 10.648498 -61.941872 18.204619 0.000001 -0.000000 -0.000000 0.284082 -9.102186 -15.744561 8.699770 6.994156 -46.319823 -0.000083 -105.190213 -0.000079 14.167838 11.231144 0.606115 -2.832634 -1.477321 13.645913 21.144811 23.526158 -9.095335 -19.266367 -16.295988 9.800749 0.000001 0.000001 -0.000002 0.664977 5.187804 -39.565298 0.884175 3.096627 -31.864642 0.328464 1.935824 -19.258116 0.000002 -0.000001 -0.000002 3.677803 8.418854 -44.374940 1.771006 4.197369 -45.737798 0.204374 1.535396 -15.162789 0.000001 -0.000001 0.000003 0.889132 5.590298 -44.372583 0.962648 3.219199 -33.288553 0.381758 2.082033 -20.778516 -0.000000 0.000000 0.000004 -0.757840 1.930107 -39.603230 0.857961 3.054114 -31.375884 0.216990 1.581213 -15.626904 -0.000002 -0.000001 0.000001 0.602833 1.651291 10.330887 43.325044 -9.338737 56.215951 0.000025 67.390895 -0.000017 15.719744 8.503071 4.145337 -8.879586 4.825553 -8.712518 8.764807 -8.662670 -11.023156 -1.498895 22.894282 -16.564327 0.000002 0.000000 0.000001 0.220492 -0.511109 19.534652 1.197111 -3.119148 41.985029 0.243123 -1.486517 18.575888 -0.000001 -0.000003 0.000003 1.088616 -5.292142 31.409755 1.054491 -2.953202 39.292842 0.148156 -1.166564 14.475761 -0.000001 0.000003 -0.000003 4.265826 -9.264468 37.903021 0.992032 -2.875294 38.064484 0.209204 -1.381524 17.220363 -0.000001 0.000001 -0.000003 2.785388 -9.718256 38.809811 1.336986 -3.267659 44.495465 0.504887 -2.110835 26.900828 0.000001 0.000001 -0.000001 -1.771123 14.728634 7.824212 72.979813 7.691041 -4.554443 -0.205053 2.772429 -9.072257 -10.857237 0.752410 -9.056600 -0.000000 -0.000003 0.000003 -36.361233 -13.374466 14.685887 56.734276 -15.209523 -0.680122 -17.952285 5.964002 -28.911839 -10.627042 0.000006 -0.000003 -0.000001 -0.000000 -0.000000 
-14.866927 75.525658 -25.987904 -2.874087 14.499378 14.734673 9.807663 -13.903074 1.241475 0.252831 -3.385853 -0.412554 0.280698 -3.366315 -0.411424 0.640309 -4.582349 -1.518065 15.313103 -61.820336 19.722566 -0.000000 0.000000 -0.000000 0.152246 -11.474339 -15.727634 2.522345 7.351373 -37.600335 -0.000016 -115.607358 -0.000061 21.352691 10.116556 -2.000520 -2.832635 -1.477324 13.645915 21.741687 24.569930 -9.741024 -19.328322 -15.787359 9.169597 0.000002 -0.000000 -0.000001 0.602613 5.106241 -39.573423 0.889355 3.104907 -31.960163 0.327387 1.932757 -19.226385 -0.000001 0.000002 -0.000002 3.560735 8.278560 -44.721295 1.767160 4.193597 -45.685083 0.205460 1.539389 -15.203173 -0.000001 0.000002 0.000003 0.868417 5.591108 -45.071356 0.941477 3.186789 -32.909959 0.381307 2.080845 -20.765846 0.000002 -0.000000 0.000001 -0.634780 2.243022 -41.846192 0.833728 3.014049 -30.918067 0.220880 1.595038 -15.767164 -0.000000 0.000001 0.000001 0.466189 -1.445007 6.589262 55.787431 -8.541552 61.048586 0.000069 72.564524 -0.000051 14.332237 10.311276 3.063141 -8.879585 4.825551 -8.712521 7.508450 -3.744771 -12.653317 -1.411056 23.150207 -16.032314 -0.000006 0.000001 -0.000002 0.373121 -0.336463 17.725628 1.128702 -3.041533 40.712087 0.240324 -1.478155 18.467585 -0.000002 -0.000003 0.000003 1.133764 -5.424935 29.431261 1.091512 -2.997814 40.005945 0.148080 -1.166245 14.471684 0.000001 0.000004 -0.000004 4.598993 -10.045379 35.835243 1.024430 -2.916129 38.705576 0.212630 -1.392531 17.361982 -0.000003 0.000003 0.000002 2.931848 -10.614295 36.962218 1.395865 -3.326419 45.519386 0.513863 -2.128403 27.143312 -0.000003 -0.000004 0.000004 6.145413 15.169655 3.581995 64.956970 8.863888 -4.522431 7.220565 0.742603 -0.960602 -13.825245 0.670720 -7.990365 -0.000000 0.000000 -0.000002 -37.861771 -15.044441 14.326137 43.400624 -15.453807 1.293096 -3.540107 2.132353 -35.358663 -9.251268 -0.000001 0.000002 -0.000000 0.000000 0.000000 
